# xmcd
#
# Track frame offsets:
#	150
#	18713
#	32054
#	48629
#	63853
#	76000
#	88997
#	99709
#	114632
#	125666
#
# Disc length: 1785 seconds
#
# Revision: 1
# Processed by: cddbd v1.5.2PL0 Copyright (c) Steve Scherf et al.
# Submitted via: audiograbber 1.83.01
#
DISCID=8506f70a
DTITLE=Diverse - Hiram and Huddie
DYEAR=2009
DGENRE=Blues
TTITLE0=Paul James - Banks of the Old Ponchartrain
TTITLE1=Scott H. Biram - Lost Highway
TTITLE2=Soda - Ramblin' Man
TTITLE3=William Elliott Whitmore - Mother is Gone
TTITLE4=C.W. Stoneking - I'll Never Get Out of This World Alive
TTITLE5=Truckstop Honeymoon - Howlin' at the Moon
TTITLE6=Jawbone - My Bucket's Gotta Hole in it
TTITLE7=Wayne "The Train" Hancock - Lovesick Blues
TTITLE8=Tom Vanden Avond - I Can't Help it if I'm Still in Love With You
TTITLE9=Bob Log III - Settin' the Woods on Fire
EXTD=
EXTT0=
EXTT1=
EXTT2=
EXTT3=
EXTT4=
EXTT5=
EXTT6=
EXTT7=
EXTT8=
EXTT9=
PLAYORDER=
